inDegrees=no
num_controls=7
num_derivatives=13
num_iterations=235
num_multipliers=7
num_parameters=0
num_slacks=7
num_states=26
objective=6.512016
objective_accelerations=0.686349
objective_balance=0.055313
objective_effort=0.549468
objective_height=5.172876
objective_ligament=0.048010
solver_duration=2034.299999
status=Solve_Succeeded
success=true
DataType=double
version=3
OpenSimVersion=4.4-2022-07-23-0e9fedc
endheader
time	/jointset/ground_pelvis/pelvis_tilt/value	/jointset/ground_pelvis/pelvis_tx/value	/jointset/ground_pelvis/pelvis_ty/value	/jointset/hip_r/hip_flexion_r/value	/jointset/hip_r/hip_adduction_r/value	/jointset/hip_r/hip_rotation_r/value	/jointset/back/lumbar_extension/value	/jointset/patellofemoral_r/patellar_flexion_r/value	/jointset/knee_r/knee_flexion_r/value	/jointset/knee_r/knee_adduction_r/value	/jointset/knee_r/knee_rotation_r/value	/jointset/ankle_r/ankle_angle_r/value	/jointset/subtalar_r/subtalar_angle_r/value	/jointset/ground_pelvis/pelvis_tilt/speed	/jointset/ground_pelvis/pelvis_tx/speed	/jointset/ground_pelvis/pelvis_ty/speed	/jointset/hip_r/hip_flexion_r/speed	/jointset/hip_r/hip_adduction_r/speed	/jointset/hip_r/hip_rotation_r/speed	/jointset/back/lumbar_extension/speed	/jointset/patellofemoral_r/patellar_flexion_r/speed	/jointset/knee_r/knee_flexion_r/speed	/jointset/knee_r/knee_adduction_r/speed	/jointset/knee_r/knee_rotation_r/speed	/jointset/ankle_r/ankle_angle_r/speed	/jointset/subtalar_r/subtalar_angle_r/speed	/forceset/tau_hip_flexion_r	/forceset/tau_hip_adduction_r	/forceset/tau_hip_rotation_r	/forceset/tau_knee_flexion_r	/forceset/tau_ankle_angle_r	/forceset/tau_subtalar_angle_r	/forceset/tau_lumbar_extension	lambda_cid13_p0	lambda_cid14_p0	lambda_cid14_p1	lambda_cid14_p2	lambda_cid14_p3	lambda_cid14_p4	lambda_cid14_p5	/jointset/ground_pelvis/pelvis_tilt/accel	/jointset/ground_pelvis/pelvis_tx/accel	/jointset/ground_pelvis/pelvis_ty/accel	/jointset/hip_r/hip_flexion_r/accel	/jointset/hip_r/hip_adduction_r/accel	/jointset/hip_r/hip_rotation_r/accel	/jointset/back/lumbar_extension/accel	/jointset/patellofemoral_r/patellar_flexion_r/accel	/jointset/knee_r/knee_flexion_r/accel	/jointset/knee_r/knee_adduction_r/accel	/jointset/knee_r/knee_rotation_r/accel	/jointset/ankle_r/ankle_angle_r/accel	/jointset/subtalar_r/subtalar_angle_r/accel	gamma_cid13_p0	gamma_cid14_p0	gamma_cid14_p1	gamma_cid14_p2	gamma_cid14_p3	gamma_cid14_p4	gamma_cid14_p5
0	-0.006516720049072967	0.09626122355120242	0.9427240274471528	0.1762555651711513	-0.2321527135997357	-0.2616407701261209	-0.0385979564078546	0.07317816487761884	0.07317816487761825	0.1745329251994329	0.1745329246035566	0.0324735960626065	-0.003451810650970919	0	0	0	0	0	0	0	0	0	0	0	0	0	0.2411434477255003	-0.2006947284817372	-0.04703347615998728	-0.427295635003342	0.4222531108230746	-0.1217395356218535	-0.1349792355478921	-39.07620706675326	86.91269387367495	-27.99050346893142	-6.115271514611448	-37.64741641454619	-674.8433690833763	82.30712051894429	-2.537627027106262	-1.231033337122325	-0.7489128638515553	10.50885655637617	-0.2066607919644396	2.988734970327811	-5.212645942155474	10.81779354291897	10.81779354291896	-2.496383506352064	0.2018168742501465	3.602715348138656	0.5798158205706546	9.423350297302224e-08	1.26132461306882e-08	-7.727106894193518e-07	1.847982716349607e-07	5.886058855998827e-08	-1.781656248461279e-08	-3.52584996918493e-07
0.01	-0.006635558717321987	0.09620051371078517	0.9426879545469082	0.1767636833718274	-0.2321618765270232	-0.2614829409852965	-0.03886196590181551	0.07370365848000257	0.07370365848000499	0.1744088893013825	0.1745302795702156	0.0326490304005246	-0.003422775653021691	-0.0236523931602506	-0.01209427200193801	-0.007198942018984183	0.1011667936726922	-0.001864365524962619	0.03140520083883801	-0.0524444244549752	0.1046468185601439	0.1046468185601439	-0.02460010526135878	-0.0005077173348942921	0.03491431119297288	0.005734872294722576	0.23475797265827	-0.19849093624523	-0.04551316598035559	-0.4187328890729992	0.4102613332405983	-0.1188658969961828	-0.1298670318088167	-39.09388654090398	83.15738067582483	-27.40963148609612	-6.196889217594657	-35.37515023716119	-675.2164265481658	82.65435929118532	-2.261743902943302	-1.191457947455553	-0.7030427297455966	9.852063153547601	-0.1811762523891559	3.192369439094478	-5.206719546559379	10.22032187829474	10.22032187829473	-2.410598076469362	-0.1738110389456354	3.409918251123925	0.5594042333142433	1.289469541201505e-07	-4.753630064885083e-09	-1.072514563599757e-06	1.646650175174357e-07	1.029922435912305e-07	-2.378461759256865e-07	-4.231598336743389e-07
0.02	-0.006987461005666358	0.09602029438720323	0.9425803606547092	0.1782697639853983	-0.2321906534734844	-0.2610158684763946	-0.03963969541020314	0.07526205944113999	0.07526205944114017	0.1740450886065471	0.1745232083631891	0.03316843369962275	-0.003338575672247015	-0.04661272401885144	-0.02390189663293041	-0.01430419839091266	0.1995924825786616	-0.003922803835001077	0.0618486736149844	-0.1027440028855802	0.2065814717495934	0.2065814717495933	-0.04795117214038019	-0.0008852347332452996	0.06879379223583849	0.01103299656509239	0.2283724975910595	-0.1962871440087336	-0.04399285580076475	-0.4101701431426475	0.3982695556581188	-0.1159922583705235	-0.1247548280697183	-39.14616686787936	79.49569395966189	-26.83218363189186	-6.255323774902918	-33.31706855068399	-674.1706920542813	82.76998904853181	-2.399214566776288	-1.173703862933229	-0.7301757344404139	9.960635603031632	-0.2454753489796013	2.79638935778949	-4.783676737281407	10.27536046878007	10.27536046878008	-2.246575829884604	0.2278568615587986	3.395749318117177	0.4924662157001031	1.636604052672787e-07	-2.212050626045836e-08	-1.372318437780163e-06	1.445317633999106e-07	1.471238986224728e-07	-4.578757893667602e-07	-4.937346704301848e-07
0.03	-0.0075660058584033	0.09572334642565042	0.942401863332189	0.180747343836114	-0.2322409392184624	-0.2602509300410604	-0.04090935380536794	0.07782701927886519	0.07782701927886067	0.1734542253454999	0.1745146363964601	0.03402150877652309	-0.003203491260157246	-0.06897645478124742	-0.03544618739176645	-0.02140138134735113	0.2954698832505785	-0.006150366683518587	0.09098383570651883	-0.150851219872213	0.3059488139405784	0.3059488139405785	-0.07001142871652777	-0.0008439099463192362	0.1016364071734161	0.01592573062226125	0.2212023813834147	-0.1910008234171887	-0.04214853694981655	-0.4014951109071839	0.3860131190799089	-0.1150960428873588	-0.1191451416728295	-39.23157198359045	75.65577271934875	-27.14667025005813	-6.169353792133623	-30.95757116056784	-673.3220014546072	80.9527806788101	-2.136975323657055	-1.138535836454882	-0.7004993255423065	9.333250118446017	-0.2139721021950332	2.948862372619753	-4.773775738021119	9.698135943834631	9.698135943834652	-2.154448175045611	-0.1098636114940097	3.200820822575183	0.4787546856982894	1.809282223042674e-07	-3.591610793096099e-08	-1.524681062252627e-06	1.274259977736177e-07	1.747970431448332e-07	-6.164070044169205e-07	-5.297682643123812e-07
